<?xml version="1.0" encoding="UTF-8" standalone="no"?>
<!-- Created with Inkscape (http://www.inkscape.org/) -->

<svg
   width="200mm"
   height="200mm"
   viewBox="0 0 200 200"
   version="1.1"
   id="svg1"
   inkscape:version="1.3.2 (091e20ef0f, 2023-11-25, custom)"
   sodipodi:docname="logo.svg"
   xmlns:inkscape="http://www.inkscape.org/namespaces/inkscape"
   xmlns:sodipodi="http://sodipodi.sourceforge.net/DTD/sodipodi-0.dtd"
   xmlns="http://www.w3.org/2000/svg"
   xmlns:svg="http://www.w3.org/2000/svg">
  <sodipodi:namedview
     id="namedview1"
     pagecolor="#ffffff"
     bordercolor="#666666"
     borderopacity="1.0"
     inkscape:showpageshadow="2"
     inkscape:pageopacity="0.0"
     inkscape:pagecheckerboard="0"
     inkscape:deskcolor="#d1d1d1"
     inkscape:document-units="mm"
     inkscape:zoom="0.1480013"
     inkscape:cx="5003.3343"
     inkscape:cy="1763.498"
     inkscape:window-width="2560"
     inkscape:window-height="1372"
     inkscape:window-x="0"
     inkscape:window-y="0"
     inkscape:window-maximized="1"
     inkscape:current-layer="layer1">
    <inkscape:page
       x="0"
       y="0"
       width="200"
       height="200"
       id="page4"
       margin="0"
       bleed="0" />
    <inkscape:page
       x="210"
       y="0"
       width="2150"
       height="200"
       id="page5"
       margin="0 0 0 0"
       bleed="0" />
    <inkscape:page
       x="0"
       y="214.00314"
       width="720"
       height="200"
       id="page7"
       margin="0"
       bleed="0" />
  </sodipodi:namedview>
  <defs
     id="defs1" />
  <g
     inkscape:label="Layer 1"
     inkscape:groupmode="layer"
     id="layer1"
     transform="translate(-0.5158945,-3.4110288)">
    <path
       id="rect1"
       style="fill:#b9694d;fill-opacity:1;stroke:#000000;stroke-width:3.26898;stroke-linecap:butt;stroke-linejoin:round;stroke-opacity:1;paint-order:markers fill stroke"
       d="m 3.0040992,9.347574 c 17.3703418,0 31.3549088,13.984568 31.3549088,31.35491 0,17.370342 -13.984567,31.354065 -31.3549088,31.354065 H 166.64984 c 17.37034,0 31.3549,-13.983723 31.3549,-31.354065 0,-17.370342 -13.98456,-31.35491 -31.3549,-31.35491 z" />
    <path
       id="path2"
       style="fill:#d8a62e;fill-opacity:1;stroke:#000000;stroke-width:3.26898;stroke-linecap:butt;stroke-linejoin:round;stroke-opacity:1;paint-order:markers fill stroke"
       d="m 3.0040992,72.056549 c 17.3703418,0 31.3549088,13.984567 31.3549088,31.354911 0,17.37034 -13.984567,31.35407 -31.3549088,31.35407 H 166.64984 c 17.37034,0 31.3549,-13.98373 31.3549,-31.35407 0,-17.370344 -13.98456,-31.354911 -31.3549,-31.354911 z" />
    <path
       id="path3"
       style="fill:#489cbe;fill-opacity:1;stroke:#000000;stroke-width:3.26898;stroke-linecap:butt;stroke-linejoin:round;stroke-opacity:1;paint-order:markers fill stroke"
       d="m 3.0040992,134.76553 c 17.3703418,0 31.3549088,13.98456 31.3549088,31.3549 0,17.37034 -13.984567,31.35406 -31.3549088,31.35406 H 166.64984 c 17.37034,0 31.3549,-13.98372 31.3549,-31.35406 0,-17.37034 -13.98456,-31.3549 -31.3549,-31.3549 z" />
    <path
       id="path5"
       style="fill:#b9694d;fill-opacity:1;stroke:#000000;stroke-width:3.26898;stroke-linecap:butt;stroke-linejoin:round;stroke-opacity:1;paint-order:markers fill stroke"
       d="m 212.12743,9.3475716 c 17.37035,0 31.35493,13.9845684 31.35493,31.3549104 0,17.370342 -13.98458,31.354065 -31.35493,31.354065 h 163.64581 c 17.37034,0 31.3549,-13.983723 31.3549,-31.354065 0,-17.370342 -13.98456,-31.3549104 -31.3549,-31.3549104 z" />
    <path
       id="path6"
       style="fill:#d8a62e;fill-opacity:1;stroke:#000000;stroke-width:3.26898;stroke-linecap:butt;stroke-linejoin:round;stroke-opacity:1;paint-order:markers fill stroke"
       d="m 212.12743,72.056547 c 17.37035,0 31.35493,13.984567 31.35493,31.354913 0,17.37034 -13.98458,31.35407 -31.35493,31.35407 h 163.64581 c 17.37034,0 31.3549,-13.98373 31.3549,-31.35407 0,-17.370346 -13.98456,-31.354913 -31.3549,-31.354913 z" />
    <path
       id="path7"
       style="fill:#489cbe;fill-opacity:1;stroke:#000000;stroke-width:3.26898;stroke-linecap:butt;stroke-linejoin:round;stroke-opacity:1;paint-order:markers fill stroke"
       d="m 212.12743,134.76553 c 17.37035,0 31.35493,13.98456 31.35493,31.3549 0,17.37034 -13.98458,31.35406 -31.35493,31.35406 h 163.64581 c 17.37034,0 31.3549,-13.98372 31.3549,-31.35406 0,-17.37034 -13.98456,-31.3549 -31.3549,-31.3549 z" />
    <text
       xml:space="preserve"
       style="font-style:normal;font-weight:normal;font-size:52.5073px;line-height:1.25;font-family:sans-serif;fill:#000000;fill-opacity:1;stroke:none;stroke-width:1.31269"
       x="417.32745"
       y="188.8512"
       id="text7"><tspan
         sodipodi:role="line"
         id="tspan7"
         style="font-style:normal;font-variant:normal;font-weight:normal;font-stretch:normal;font-size:252.036px;font-family:'EB Garamond';-inkscape-font-specification:'EB Garamond, Normal';font-variant-ligatures:normal;font-variant-caps:normal;font-variant-numeric:normal;font-variant-east-asian:normal;stroke-width:1.31269"
         x="417.32745"
         y="188.8512">Online Media Shelf</tspan></text>
    <path
       id="path8"
       style="fill:#b9694d;fill-opacity:1;stroke:#000000;stroke-width:3.26898;stroke-linecap:butt;stroke-linejoin:round;stroke-opacity:1;paint-order:markers fill stroke"
       d="m 3.0040992,223.5864 c 17.3703418,0 31.3549088,13.98457 31.3549088,31.35491 0,17.37034 -13.984567,31.35407 -31.3549088,31.35407 H 166.64984 c 17.37034,0 31.3549,-13.98373 31.3549,-31.35407 0,-17.37034 -13.98456,-31.35491 -31.3549,-31.35491 z" />
    <path
       id="path9"
       style="fill:#d8a62e;fill-opacity:1;stroke:#000000;stroke-width:3.26898;stroke-linecap:butt;stroke-linejoin:round;stroke-opacity:1;paint-order:markers fill stroke"
       d="m 3.0040992,286.29538 c 17.3703418,0 31.3549088,13.98456 31.3549088,31.35491 0,17.37034 -13.984567,31.35407 -31.3549088,31.35407 H 166.64984 c 17.37034,0 31.3549,-13.98373 31.3549,-31.35407 0,-17.37035 -13.98456,-31.35491 -31.3549,-31.35491 z" />
    <path
       id="path10"
       style="fill:#489cbe;fill-opacity:1;stroke:#000000;stroke-width:3.26898;stroke-linecap:butt;stroke-linejoin:round;stroke-opacity:1;paint-order:markers fill stroke"
       d="m 3.0040992,349.00436 c 17.3703418,0 31.3549088,13.98456 31.3549088,31.3549 0,17.37034 -13.984567,31.35406 -31.3549088,31.35406 H 166.64984 c 17.37034,0 31.3549,-13.98372 31.3549,-31.35406 0,-17.37034 -13.98456,-31.3549 -31.3549,-31.3549 z" />
    <text
       xml:space="preserve"
       style="font-style:normal;font-weight:normal;font-size:52.5073px;line-height:1.25;font-family:sans-serif;fill:#000000;fill-opacity:1;stroke:none;stroke-width:1.31269"
       x="208.20412"
       y="391.63876"
       id="text10"><tspan
         sodipodi:role="line"
         id="tspan10"
         style="font-style:normal;font-variant:normal;font-weight:normal;font-stretch:normal;font-size:252.036px;font-family:'EB Garamond';-inkscape-font-specification:'EB Garamond, Normal';font-variant-ligatures:normal;font-variant-caps:normal;font-variant-numeric:normal;font-variant-east-asian:normal;stroke-width:1.31269"
         x="208.20412"
         y="391.63876">OMS</tspan></text>
  </g>
</svg>
