<?xml version="1.0" encoding="UTF-8" standalone="no"?>
<!-- Created with Inkscape (http://www.inkscape.org/) -->

<svg
   width="200mm"
   height="200mm"
   viewBox="0 0 200 200"
   version="1.1"
   id="svg1"
   inkscape:version="1.3.2 (091e20ef0f, 2023-11-25, custom)"
   sodipodi:docname="logo.svg"
   xmlns:inkscape="http://www.inkscape.org/namespaces/inkscape"
   xmlns:sodipodi="http://sodipodi.sourceforge.net/DTD/sodipodi-0.dtd"
   xmlns="http://www.w3.org/2000/svg"
   xmlns:svg="http://www.w3.org/2000/svg">
  <sodipodi:namedview
     id="namedview1"
     pagecolor="#ffffff"
     bordercolor="#666666"
     borderopacity="1.0"
     inkscape:showpageshadow="2"
     inkscape:pageopacity="0.0"
     inkscape:pagecheckerboard="0"
     inkscape:deskcolor="#d1d1d1"
     inkscape:document-units="mm"
     inkscape:zoom="0.2960026"
     inkscape:cx="2398.6275"
     inkscape:cy="847.96551"
     inkscape:window-width="2560"
     inkscape:window-height="1372"
     inkscape:window-x="0"
     inkscape:window-y="0"
     inkscape:window-maximized="1"
     inkscape:current-layer="layer1">
    <inkscape:page
       x="0"
       y="0"
       width="200"
       height="200"
       id="page4"
       margin="0"
       bleed="0"
       inkscape:label="PictureMark" />
    <inkscape:page
       x="210"
       y="0"
       width="2150"
       height="200"
       id="page5"
       margin="0 0 0 0"
       bleed="0"
       inkscape:label="WordMarkFull" />
    <inkscape:page
       x="0"
       y="214.00314"
       width="720"
       height="200"
       id="page7"
       margin="0"
       bleed="0"
       inkscape:export-filename="WordMarkShort.svg"
       inkscape:export-xdpi="24.190475"
       inkscape:export-ydpi="24.190475"
       inkscape:label="WordMarkShort" />
  </sodipodi:namedview>
  <defs
     id="defs1" />
  <g
     inkscape:label="Layer 1"
     inkscape:groupmode="layer"
     id="layer1"
     transform="translate(-0.5158945,-3.4110288)">
    <path
       id="rect1"
       style="fill:#b9694d;fill-opacity:1;stroke:#000000;stroke-width:15.0206;stroke-linecap:butt;stroke-linejoin:round;stroke-dasharray:none;stroke-opacity:1;paint-order:markers fill stroke"
       d="m 8.9207284,15.095187 c 16.3089326,0 29.4389886,13.130043 29.4389886,29.439015 0,16.30892 -13.130056,29.438162 -29.4389886,29.438162 H 162.56703 c 16.30844,0 29.43857,-13.129242 29.43857,-29.438162 0,-16.308972 -13.13013,-29.439015 -29.43857,-29.439015 z" />
    <path
       id="path2"
       style="fill:#d8a62e;fill-opacity:1;stroke:#000000;stroke-width:15.0206;stroke-linecap:butt;stroke-linejoin:round;stroke-dasharray:none;stroke-opacity:1;paint-order:markers fill stroke"
       d="m 8.9207284,73.972364 c 16.3089326,0 29.4389886,13.130069 29.4389886,29.438756 0,16.3095 -13.130056,29.43856 -29.4389886,29.43856 H 162.56703 c 16.30844,0 29.43857,-13.12906 29.43857,-29.43856 0,-16.308687 -13.13013,-29.438756 -29.43857,-29.438756 z" />
    <path
       id="path3"
       style="fill:#489cbe;fill-opacity:1;stroke:#000000;stroke-width:15.0206;stroke-linecap:butt;stroke-linejoin:round;stroke-dasharray:none;stroke-opacity:1;paint-order:markers fill stroke"
       d="m 8.9207284,132.84968 c 16.3089326,0 29.4389886,13.12976 29.4389886,29.43881 0,16.30909 -13.130056,29.43838 -29.4389886,29.43838 H 162.56703 c 16.30844,0 29.43857,-13.12929 29.43857,-29.43838 0,-16.30905 -13.13013,-29.43881 -29.43857,-29.43881 z" />
    <text
       xml:space="preserve"
       style="font-style:normal;font-weight:normal;font-size:52.5073px;line-height:1.25;font-family:sans-serif;fill:#000000;fill-opacity:1;stroke:none;stroke-width:1.31269"
       x="417.32745"
       y="188.8512"
       id="text7"><tspan
         sodipodi:role="line"
         id="tspan7"
         style="font-style:normal;font-variant:normal;font-weight:normal;font-stretch:normal;font-size:252.036px;font-family:'EB Garamond';-inkscape-font-specification:'EB Garamond, Normal';font-variant-ligatures:normal;font-variant-caps:normal;font-variant-numeric:normal;font-variant-east-asian:normal;stroke-width:1.31269"
         x="417.32745"
         y="188.8512">Online Media Shelf</tspan></text>
    <text
       xml:space="preserve"
       style="font-style:normal;font-weight:normal;font-size:52.5073px;line-height:1.25;font-family:sans-serif;fill:#000000;fill-opacity:1;stroke:none;stroke-width:1.31269"
       x="208.20412"
       y="391.63876"
       id="text10"><tspan
         sodipodi:role="line"
         id="tspan10"
         style="font-style:normal;font-variant:normal;font-weight:normal;font-stretch:normal;font-size:252.036px;font-family:'EB Garamond';-inkscape-font-specification:'EB Garamond, Normal';font-variant-ligatures:normal;font-variant-caps:normal;font-variant-numeric:normal;font-variant-east-asian:normal;stroke-width:1.31269"
         x="208.20412"
         y="391.63876">OMS</tspan></text>
    <path
       id="path10"
       style="fill:#b9694d;fill-opacity:1;stroke:#000000;stroke-width:15.0206;stroke-linecap:butt;stroke-linejoin:round;stroke-dasharray:none;stroke-opacity:1;paint-order:markers fill stroke"
       d="m 217.92073,15.095188 c 16.30893,0 29.43898,13.130043 29.43898,29.439015 0,16.30892 -13.13005,29.438162 -29.43898,29.438162 h 153.6463 c 16.30844,0 29.43857,-13.129242 29.43857,-29.438162 0,-16.308972 -13.13013,-29.439015 -29.43857,-29.439015 z" />
    <path
       id="path11"
       style="fill:#d8a62e;fill-opacity:1;stroke:#000000;stroke-width:15.0206;stroke-linecap:butt;stroke-linejoin:round;stroke-dasharray:none;stroke-opacity:1;paint-order:markers fill stroke"
       d="m 217.92073,73.972365 c 16.30893,0 29.43898,13.130069 29.43898,29.438755 0,16.3095 -13.13005,29.43856 -29.43898,29.43856 h 153.6463 c 16.30844,0 29.43857,-13.12906 29.43857,-29.43856 0,-16.308686 -13.13013,-29.438755 -29.43857,-29.438755 z" />
    <path
       id="path12"
       style="fill:#489cbe;fill-opacity:1;stroke:#000000;stroke-width:15.0206;stroke-linecap:butt;stroke-linejoin:round;stroke-dasharray:none;stroke-opacity:1;paint-order:markers fill stroke"
       d="m 217.92073,132.84968 c 16.30893,0 29.43898,13.12976 29.43898,29.43881 0,16.30909 -13.13005,29.43838 -29.43898,29.43838 h 153.6463 c 16.30844,0 29.43857,-13.12929 29.43857,-29.43838 0,-16.30905 -13.13013,-29.43881 -29.43857,-29.43881 z" />
    <path
       id="path13"
       style="fill:#b9694d;fill-opacity:1;stroke:#000000;stroke-width:15.0206;stroke-linecap:butt;stroke-linejoin:round;stroke-dasharray:none;stroke-opacity:1;paint-order:markers fill stroke"
       d="m 7.9207314,229.09833 c 16.3089996,0 29.4389996,13.13004 29.4389996,29.43901 0,16.30892 -13.13,29.43816 -29.4389996,29.43816 H 161.56705 c 16.3085,0 29.4386,-13.12924 29.4386,-29.43816 0,-16.30897 -13.1301,-29.43901 -29.4386,-29.43901 z" />
    <path
       id="path14"
       style="fill:#d8a62e;fill-opacity:1;stroke:#000000;stroke-width:15.0206;stroke-linecap:butt;stroke-linejoin:round;stroke-dasharray:none;stroke-opacity:1;paint-order:markers fill stroke"
       d="m 7.9207314,287.9755 c 16.3089996,0 29.4389996,13.13007 29.4389996,29.43876 0,16.3095 -13.13,29.43856 -29.4389996,29.43856 H 161.56705 c 16.3085,0 29.4386,-13.12906 29.4386,-29.43856 0,-16.30869 -13.1301,-29.43876 -29.4386,-29.43876 z" />
    <path
       id="path15"
       style="fill:#489cbe;fill-opacity:1;stroke:#000000;stroke-width:15.0206;stroke-linecap:butt;stroke-linejoin:round;stroke-dasharray:none;stroke-opacity:1;paint-order:markers fill stroke"
       d="m 7.9207314,346.85282 c 16.3089996,0 29.4389996,13.12976 29.4389996,29.43881 0,16.30909 -13.13,29.43838 -29.4389996,29.43838 H 161.56705 c 16.3085,0 29.4386,-13.12929 29.4386,-29.43838 0,-16.30905 -13.1301,-29.43881 -29.4386,-29.43881 z" />
  </g>
</svg>
