<?xml version="1.0" encoding="UTF-8" standalone="no"?>
<!-- Created with Inkscape (http://www.inkscape.org/) -->

<svg
   width="2150mm"
   height="200mm"
   viewBox="0 0 2150 200"
   version="1.1"
   id="svg1"
   xmlns="http://www.w3.org/2000/svg"
   xmlns:svg="http://www.w3.org/2000/svg">
  <defs
     id="defs1" />
  <g
     id="layer1"
     transform="translate(-210.5159,-3.4110288)">
    <path
       id="path5"
       style="fill:#b9694d;fill-opacity:1;stroke:#000000;stroke-width:3.26898;stroke-linecap:butt;stroke-linejoin:round;stroke-opacity:1;paint-order:markers fill stroke"
       d="m 212.12743,9.3475716 c 17.37035,0 31.35493,13.9845684 31.35493,31.3549104 0,17.370342 -13.98458,31.354065 -31.35493,31.354065 h 163.64581 c 17.37034,0 31.3549,-13.983723 31.3549,-31.354065 0,-17.370342 -13.98456,-31.3549104 -31.3549,-31.3549104 z" />
    <path
       id="path6"
       style="fill:#d8a62e;fill-opacity:1;stroke:#000000;stroke-width:3.26898;stroke-linecap:butt;stroke-linejoin:round;stroke-opacity:1;paint-order:markers fill stroke"
       d="m 212.12743,72.056547 c 17.37035,0 31.35493,13.984567 31.35493,31.354913 0,17.37034 -13.98458,31.35407 -31.35493,31.35407 h 163.64581 c 17.37034,0 31.3549,-13.98373 31.3549,-31.35407 0,-17.370346 -13.98456,-31.354913 -31.3549,-31.354913 z" />
    <path
       id="path7"
       style="fill:#489cbe;fill-opacity:1;stroke:#000000;stroke-width:3.26898;stroke-linecap:butt;stroke-linejoin:round;stroke-opacity:1;paint-order:markers fill stroke"
       d="m 212.12743,134.76553 c 17.37035,0 31.35493,13.98456 31.35493,31.3549 0,17.37034 -13.98458,31.35406 -31.35493,31.35406 h 163.64581 c 17.37034,0 31.3549,-13.98372 31.3549,-31.35406 0,-17.37034 -13.98456,-31.3549 -31.3549,-31.3549 z" />
    <text
       xml:space="preserve"
       style="font-style:normal;font-weight:normal;font-size:52.5073px;line-height:1.25;font-family:sans-serif;fill:#000000;fill-opacity:1;stroke:none;stroke-width:1.31269"
       x="417.32745"
       y="188.8512"
       id="text7"><tspan
         id="tspan7"
         style="font-style:normal;font-variant:normal;font-weight:normal;font-stretch:normal;font-size:252.036px;font-family:'EB Garamond';-inkscape-font-specification:'EB Garamond, Normal';font-variant-ligatures:normal;font-variant-caps:normal;font-variant-numeric:normal;font-variant-east-asian:normal;stroke-width:1.31269"
         x="417.32745"
         y="188.8512">Online Media Shelf</tspan></text>
  </g>
</svg>
