<?xml version="1.0" encoding="UTF-8" standalone="no"?>
<!-- Created with Inkscape (http://www.inkscape.org/) -->

<svg
   width="720mm"
   height="200mm"
   viewBox="0 0 720 200"
   version="1.1"
   id="svg1"
   xmlns="http://www.w3.org/2000/svg"
   xmlns:svg="http://www.w3.org/2000/svg">
  <defs
     id="defs1" />
  <g
     id="layer1"
     transform="translate(-0.51589682,-217.41417)">
    <text
       xml:space="preserve"
       style="font-style:normal;font-weight:normal;font-size:52.5073px;line-height:1.25;font-family:sans-serif;fill:#000000;fill-opacity:1;stroke:none;stroke-width:1.31269"
       x="208.20412"
       y="391.63876"
       id="text10"><tspan
         id="tspan10"
         style="font-style:normal;font-variant:normal;font-weight:normal;font-stretch:normal;font-size:252.036px;font-family:'EB Garamond';-inkscape-font-specification:'EB Garamond, Normal';font-variant-ligatures:normal;font-variant-caps:normal;font-variant-numeric:normal;font-variant-east-asian:normal;stroke-width:1.31269"
         x="208.20412"
         y="391.63876">OMS</tspan></text>
    <path
       id="path13"
       style="fill:#b9694d;fill-opacity:1;stroke:#000000;stroke-width:15.0206;stroke-linecap:butt;stroke-linejoin:round;stroke-dasharray:none;stroke-opacity:1;paint-order:markers fill stroke"
       d="m 7.9207314,229.09833 c 16.3089996,0 29.4389996,13.13004 29.4389996,29.43901 0,16.30892 -13.13,29.43816 -29.4389996,29.43816 H 161.56705 c 16.3085,0 29.4386,-13.12924 29.4386,-29.43816 0,-16.30897 -13.1301,-29.43901 -29.4386,-29.43901 z" />
    <path
       id="path14"
       style="fill:#d8a62e;fill-opacity:1;stroke:#000000;stroke-width:15.0206;stroke-linecap:butt;stroke-linejoin:round;stroke-dasharray:none;stroke-opacity:1;paint-order:markers fill stroke"
       d="m 7.9207314,287.9755 c 16.3089996,0 29.4389996,13.13007 29.4389996,29.43876 0,16.3095 -13.13,29.43856 -29.4389996,29.43856 H 161.56705 c 16.3085,0 29.4386,-13.12906 29.4386,-29.43856 0,-16.30869 -13.1301,-29.43876 -29.4386,-29.43876 z" />
    <path
       id="path15"
       style="fill:#489cbe;fill-opacity:1;stroke:#000000;stroke-width:15.0206;stroke-linecap:butt;stroke-linejoin:round;stroke-dasharray:none;stroke-opacity:1;paint-order:markers fill stroke"
       d="m 7.9207314,346.85282 c 16.3089996,0 29.4389996,13.12976 29.4389996,29.43881 0,16.30909 -13.13,29.43838 -29.4389996,29.43838 H 161.56705 c 16.3085,0 29.4386,-13.12929 29.4386,-29.43838 0,-16.30905 -13.1301,-29.43881 -29.4386,-29.43881 z" />
  </g>
</svg>
