<?xml version="1.0" encoding="UTF-8" standalone="no"?>
<!-- Created with Inkscape (http://www.inkscape.org/) -->

<svg
   width="720mm"
   height="200mm"
   viewBox="0 0 720 200"
   version="1.1"
   id="svg1"
   xmlns="http://www.w3.org/2000/svg"
   xmlns:svg="http://www.w3.org/2000/svg">
  <defs
     id="defs1" />
  <g
     id="layer1"
     transform="translate(-0.51589682,-217.41417)">
    <path
       id="path8"
       style="fill:#b9694d;fill-opacity:1;stroke:#000000;stroke-width:3.26898;stroke-linecap:butt;stroke-linejoin:round;stroke-opacity:1;paint-order:markers fill stroke"
       d="m 3.0040992,223.5864 c 17.3703418,0 31.3549088,13.98457 31.3549088,31.35491 0,17.37034 -13.984567,31.35407 -31.3549088,31.35407 H 166.64984 c 17.37034,0 31.3549,-13.98373 31.3549,-31.35407 0,-17.37034 -13.98456,-31.35491 -31.3549,-31.35491 z" />
    <path
       id="path9"
       style="fill:#d8a62e;fill-opacity:1;stroke:#000000;stroke-width:3.26898;stroke-linecap:butt;stroke-linejoin:round;stroke-opacity:1;paint-order:markers fill stroke"
       d="m 3.0040992,286.29538 c 17.3703418,0 31.3549088,13.98456 31.3549088,31.35491 0,17.37034 -13.984567,31.35407 -31.3549088,31.35407 H 166.64984 c 17.37034,0 31.3549,-13.98373 31.3549,-31.35407 0,-17.37035 -13.98456,-31.35491 -31.3549,-31.35491 z" />
    <path
       id="path10"
       style="fill:#489cbe;fill-opacity:1;stroke:#000000;stroke-width:3.26898;stroke-linecap:butt;stroke-linejoin:round;stroke-opacity:1;paint-order:markers fill stroke"
       d="m 3.0040992,349.00436 c 17.3703418,0 31.3549088,13.98456 31.3549088,31.3549 0,17.37034 -13.984567,31.35406 -31.3549088,31.35406 H 166.64984 c 17.37034,0 31.3549,-13.98372 31.3549,-31.35406 0,-17.37034 -13.98456,-31.3549 -31.3549,-31.3549 z" />
    <text
       xml:space="preserve"
       style="font-style:normal;font-weight:normal;font-size:52.5073px;line-height:1.25;font-family:sans-serif;fill:#000000;fill-opacity:1;stroke:none;stroke-width:1.31269"
       x="208.20412"
       y="391.63876"
       id="text10"><tspan
         id="tspan10"
         style="font-style:normal;font-variant:normal;font-weight:normal;font-stretch:normal;font-size:252.036px;font-family:'EB Garamond';-inkscape-font-specification:'EB Garamond, Normal';font-variant-ligatures:normal;font-variant-caps:normal;font-variant-numeric:normal;font-variant-east-asian:normal;stroke-width:1.31269"
         x="208.20412"
         y="391.63876">OMS</tspan></text>
  </g>
</svg>
