<?xml version="1.0" encoding="UTF-8" standalone="no"?>
<!-- Created with Inkscape (http://www.inkscape.org/) -->

<svg
   width="200mm"
   height="200mm"
   viewBox="0 0 200 200"
   version="1.1"
   id="svg1"
   xmlns="http://www.w3.org/2000/svg"
   xmlns:svg="http://www.w3.org/2000/svg">
  <defs
     id="defs1" />
  <g
     id="layer1"
     transform="translate(-2370.5159,-3.4110288)">
    <path
       id="path1"
       style="fill:#b9694d;fill-opacity:1;stroke:#ffffff;stroke-width:15.0206;stroke-linecap:butt;stroke-linejoin:round;stroke-dasharray:none;stroke-opacity:1;paint-order:markers fill stroke"
       d="m 2378.9207,15.095187 c 16.309,0 29.439,13.130043 29.439,29.439015 0,16.30892 -13.13,29.438162 -29.439,29.438162 h 153.6463 c 16.3085,0 29.4386,-13.129242 29.4386,-29.438162 0,-16.308972 -13.1301,-29.439015 -29.4386,-29.439015 z" />
    <path
       id="path4"
       style="fill:#d8a62e;fill-opacity:1;stroke:#ffffff;stroke-width:15.0206;stroke-linecap:butt;stroke-linejoin:round;stroke-dasharray:none;stroke-opacity:1;paint-order:markers fill stroke"
       d="m 2378.9207,73.972364 c 16.309,0 29.439,13.130069 29.439,29.438756 0,16.3095 -13.13,29.43856 -29.439,29.43856 h 153.6463 c 16.3085,0 29.4386,-13.12906 29.4386,-29.43856 0,-16.308687 -13.1301,-29.438756 -29.4386,-29.438756 z" />
    <path
       id="path5"
       style="fill:#489cbe;fill-opacity:1;stroke:#ffffff;stroke-width:15.0206;stroke-linecap:butt;stroke-linejoin:round;stroke-dasharray:none;stroke-opacity:1;paint-order:markers fill stroke"
       d="m 2378.9207,132.84968 c 16.309,0 29.439,13.12976 29.439,29.43881 0,16.30909 -13.13,29.43838 -29.439,29.43838 h 153.6463 c 16.3085,0 29.4386,-13.12929 29.4386,-29.43838 0,-16.30905 -13.1301,-29.43881 -29.4386,-29.43881 z" />
  </g>
</svg>
