<?xml version="1.0" encoding="UTF-8" standalone="no"?>
<!-- Created with Inkscape (http://www.inkscape.org/) -->

<svg
   width="200mm"
   height="200mm"
   viewBox="0 0 200 200"
   version="1.1"
   id="svg1"
   xmlns="http://www.w3.org/2000/svg"
   xmlns:svg="http://www.w3.org/2000/svg">
  <defs
     id="defs1" />
  <g
     id="layer1"
     transform="translate(-0.5158945,-3.4110288)">
    <path
       id="rect1"
       style="fill:#b9694d;fill-opacity:1;stroke:#000000;stroke-width:15.0206;stroke-linecap:butt;stroke-linejoin:round;stroke-dasharray:none;stroke-opacity:1;paint-order:markers fill stroke"
       d="m 8.9207284,15.095187 c 16.3089326,0 29.4389886,13.130043 29.4389886,29.439015 0,16.30892 -13.130056,29.438162 -29.4389886,29.438162 H 162.56703 c 16.30844,0 29.43857,-13.129242 29.43857,-29.438162 0,-16.308972 -13.13013,-29.439015 -29.43857,-29.439015 z" />
    <path
       id="path2"
       style="fill:#d8a62e;fill-opacity:1;stroke:#000000;stroke-width:15.0206;stroke-linecap:butt;stroke-linejoin:round;stroke-dasharray:none;stroke-opacity:1;paint-order:markers fill stroke"
       d="m 8.9207284,73.972364 c 16.3089326,0 29.4389886,13.130069 29.4389886,29.438756 0,16.3095 -13.130056,29.43856 -29.4389886,29.43856 H 162.56703 c 16.30844,0 29.43857,-13.12906 29.43857,-29.43856 0,-16.308687 -13.13013,-29.438756 -29.43857,-29.438756 z" />
    <path
       id="path3"
       style="fill:#489cbe;fill-opacity:1;stroke:#000000;stroke-width:15.0206;stroke-linecap:butt;stroke-linejoin:round;stroke-dasharray:none;stroke-opacity:1;paint-order:markers fill stroke"
       d="m 8.9207284,132.84968 c 16.3089326,0 29.4389886,13.12976 29.4389886,29.43881 0,16.30909 -13.130056,29.43838 -29.4389886,29.43838 H 162.56703 c 16.30844,0 29.43857,-13.12929 29.43857,-29.43838 0,-16.30905 -13.13013,-29.43881 -29.43857,-29.43881 z" />
  </g>
</svg>
